:SAMPLES-PER-SECOND 30
:FULLY-SPECIFIED
:DEGREES
64
root  50.9452 39.6585 -3.00364 -114.562 -88.6168 111.533
RightUpLeg  -24.8704 -4.60701 -2.48319
RightLeg  43.1636 -5.15359 -5.48309
RightFoot  -0.462061 -0.310727 3.26433
RightToes  0.00048216 0.542163 -0.142577
Spine  15.926 -0.893889 -4.4221
Spine1  10.5367 -2.0528 1.44095
HEad  6.17872 4.0042 -0.752603
LeftShoulder1  7.987 -11.6066 -46.0928
LeftArm  -9.65384 4.80336 -31.0748
LeftForeArm  25.9646 -15.6437 -4.49274
LeftHand  -0.25398 0.0180481 5.50724
RightShoulder  5.73607 9.00455 39.7337
RightArm  20.7046 -26.7955 36.6801
RightForeArm  -3.66964 28.1505 6.27983
RightHand  -0.71779 -0.0951459 -15.7153
LeftUpLeg  -1.05505 8.84626 -3.15948
LeftLeg  15.0801 11.7063 -0.399595
LeftFoot  -13.5346 0.112935 1.65148
LeftToes  1.06246e-005 4.65856e-005 -8.18505e-006
65
root  49.7498 39.5379 -2.99772 -95.0817 -88.526 92.3301
RightUpLeg  -25.7954 -5.91633 -1.60643
RightLeg  34.0678 -4.57763 -3.58222
RightFoot  -1.63006 -0.44558 5.0917
RightToes  0.00048216 0.542163 -0.142577
Spine  16.8831 -1.26387 -5.79554
Spine1  10.6626 -3.0072 2.69337
HEad  3.9874 4.96997 -0.900019
LeftShoulder1  8.23031 -11.9653 -46.406
LeftArm  -8.31576 2.53735 -31.5581
LeftForeArm  24.9572 -18.1861 -4.09065
LeftHand  -0.25398 0.0180481 5.50724
RightShoulder  5.80389 9.14158 39.7717
RightArm  19.8056 -30.035 36.3514
RightForeArm  -3.75726 29.6454 6.65173
RightHand  -0.750408 -0.126595 -16.5114
LeftUpLeg  0.459254 8.14774 -3.34275
LeftLeg  15.5482 11.9015 -0.13605
LeftFoot  -15.8052 0.145776 1.32456
LeftToes  1.06246e-005 4.65856e-005 -8.18505e-006
66
root  48.4914 39.3228 -2.98193 -87.9234 -87.9365 85.3608
RightUpLeg  -26.3955 -8.23261 -0.446146
RightLeg  25.6915 -3.70749 -2.14949
RightFoot  -1.88412 -0.469738 5.51268
RightToes  0.00048216 0.542163 -0.142577
Spine  17.8684 -1.41533 -7.01582
Spine1  10.9662 -3.66276 3.7201
HEad  1.47067 5.65657 -1.25063
LeftShoulder1  8.57721 -12.4319 -46.9626
LeftArm  -6.95642 -0.155566 -31.6171
LeftForeArm  24.2672 -20.5485 -3.78098
LeftHand  -0.25398 0.0180481 5.50724
RightShoulder  5.85107 9.27615 39.6635
RightArm  19.2374 -33.3898 36.2121
RightForeArm  -4.60209 31.2438 7.10487
RightHand  -0.787901 -0.136418 -17.3657
LeftUpLeg  2.12062 7.98441 -3.95667
LeftLeg  16.1551 11.7563 0.266381
LeftFoot  -18.101 0.151471 0.724895
LeftToes  1.06246e-005 4.65856e-005 -8.18505e-006
67
root  47.1775 39.0219 -2.93832 -95.0928 -86.9148 92.9004
RightUpLeg  -27.4631 -11.185 0.967352
RightLeg  19.7014 -3.50791 -1.59361
RightFoot  -2.18952 -0.466373 5.64977
RightToes  0.00048216 0.542163 -0.142577
Spine  18.603 -1.31862 -7.89279
Spine1  11.4047 -3.85421 4.14686
HEad  -1.22642 6.00021 -1.62573
LeftShoulder1  8.91073 -12.8858 -47.45
LeftArm  -6.0625 -3.08704 -31.6836
LeftForeArm  24.4832 -22.9758 -3.72583
LeftHand  -0.25398 0.0180481 5.50724
RightShoulder  5.94011 9.47265 39.6563
RightArm  19.1982 -36.9743 36.0163
RightForeArm  -5.17693 33.2288 7.66627
RightHand  -0.789563 -0.270148 -17.8328
LeftUpLeg  3.60805 8.38411 -5.07698
LeftLeg  16.9646 11.51 0.729954
LeftFoot  -20.2103 0.140649 0.240928
LeftToes  1.06246e-005 4.65856e-005 -8.18505e-006
68
root  45.792 38.6057 -2.845 -101.072 -85.5335 99.6259
RightUpLeg  -29.2907 -13.9511 2.21476
RightLeg  16.8643 -3.90355 -1.5339
RightFoot  -3.04265 -0.53886 7.13127
RightToes  0.00048216 0.542163 -0.142577
Spine  19.1501 -1.29282 -8.08642
Spine1  11.6698 -3.69458 3.53365
HEad  -4.02767 5.98801 -2.01288
LeftShoulder1  9.20203 -13.2853 -47.8422
LeftArm  -6.031 -6.03319 -31.7485
LeftForeArm  26.053 -26.0913 -4.19795
LeftHand  -0.25398 0.0180481 5.50724
RightShoulder  6.1026 9.73518 39.9597
RightArm  20.0015 -40.4771 35.7487
RightForeArm  -5.16238 35.27 8.23964
RightHand  -0.799396 -0.252355 -17.9937
LeftUpLeg  4.67073 8.90324 -6.72661
LeftLeg  18.1142 11.5677 1.4141
LeftFoot  -22.8598 0.12937 -0.0742853
LeftToes  1.06246e-005 4.65856e-005 -8.18505e-006
69
root  44.3394 38.1131 -2.69429 -104.757 -84.2004 104.299
RightUpLeg  -31.577 -14.8664 2.82449
RightLeg  17.3483 -4.57659 -1.80868
RightFoot  -3.34269 -0.560776 7.6905
RightToes  0.00048216 0.542163 -0.142577
Spine  19.9618 -1.51689 -7.20409
Spine1  11.747 -3.39903 2.09577
HEad  -7.23571 5.69596 -2.64067
LeftShoulder1  9.54831 -13.683 -48.5009
LeftArm  -6.22827 -8.81426 -31.5001
LeftForeArm  28.2903 -30.6513 -5.11908
LeftHand  -0.25398 0.0180481 5.50724
RightShoulder  6.28658 9.99353 40.415
RightArm  21.3655 -43.3215 35.6572
RightForeArm  -5.01631 36.7708 8.6755
RightHand  -0.804816 -0.123374 -17.6867
LeftUpLeg  5.80559 9.21175 -8.40815
LeftLeg  18.8408 12.0444 2.03615
LeftFoot  -25.9403 0.0524685 -0.794784
LeftToes  1.06246e-005 4.65856e-005 -8.18505e-006
70
root  42.8436 37.6413 -2.50897 -110.256 -83.2083 110.903
RightUpLeg  -34.1289 -12.9483 2.58804
RightLeg  21.1474 -5.47818 -2.55002
RightFoot  -2.63815 -0.415189 5.25124
RightToes  0.00048216 0.542163 -0.142577
Spine  21.3309 -1.79677 -5.36971
Spine1  11.8334 -3.07599 0.679613
HEad  -11.0943 5.26558 -3.63449
LeftShoulder1  9.97411 -14.0621 -49.575
LeftArm  -6.48661 -11.3149 -31.1729
LeftForeArm  31.2433 -36.6518 -6.45918
LeftHand  -0.25398 0.0180481 5.50724
RightShoulder  6.47021 10.2563 40.8346
RightArm  21.8963 -45.1214 35.8493
RightForeArm  -4.82447 37.4308 8.86601
RightHand  -0.803248 0.0381064 -17.1733
LeftUpLeg  7.39871 9.65216 -9.5041
LeftLeg  18.5234 12.4388 2.1046
LeftFoot  -28.2494 -0.114208 -1.91805
LeftToes  1.06246e-005 4.65856e-005 -8.18505e-006
71
root  41.2879 37.2103 -2.29178 -117.912 -82.7674 119.977
RightUpLeg  -37.1889 -9.48861 2.10603
RightLeg  27.6603 -6.59795 -3.97624
RightFoot  -2.70453 -0.161209 1.82436
RightToes  0.00048216 0.542163 -0.142577
Spine  23.3467 -2.13671 -2.75867
Spine1  11.4583 -2.84201 -0.157878
HEad  -15.2969 4.90914 -5.0337
LeftShoulder1  10.3518 -14.3429 -50.6369
LeftArm  -6.79082 -13.2167 -31.6135
LeftForeArm  34.6607 -43.2187 -8.18621
LeftHand  -0.25398 0.0180481 5.50724
RightShoulder  6.65509 10.5705 41.083
RightArm  20.4374 -45.6549 36.3355
RightForeArm  -4.72247 36.8144 8.67428
RightHand  -0.978564 0.975889 -17.8444
LeftUpLeg  9.00868 10.0409 -9.90817
LeftLeg  17.6618 12.9343 1.95008
LeftFoot  -29.69 -0.209752 -2.41574
LeftToes  1.06246e-005 4.65856e-005 -8.18505e-006
72
root  39.6535 36.7604 -2.00635 -126.715 -83.3296 130.8
RightUpLeg  -40.6858 -6.9306 2.40899
RightLeg  35.267 -7.76888 -6.12286
RightFoot  -5.38338 -0.0647467 0.649918
RightToes  0.00048216 0.542163 -0.142577
Spine  26.2665 -3.02933 0.969129
Spine1  9.65086 -3.00744 -0.404716
HEad  -19.5652 4.92546 -7.18175
LeftShoulder1  10.6032 -14.5566 -51.2438
LeftArm  -6.93584 -13.9823 -32.9762
LeftForeArm  37.4245 -49.6787 -10.3774
LeftHand  -0.25398 0.0180481 5.50724
RightShoulder  6.7918 10.883 41.011
RightArm  17.4968 -44.6628 36.6484
RightForeArm  -5.2939 34.6806 8.08092
RightHand  -1.50968 3.28549 -20.2615
LeftUpLeg  9.87234 10.043 -9.64496
LeftLeg  17.2272 13.7392 2.51381
LeftFoot  -31.5777 -0.212382 -2.254
LeftToes  1.06246e-005 4.65856e-005 -8.18505e-006
73
root  37.9728 36.2817 -1.67687 -138.558 -84.9744 145.157
RightUpLeg  -43.9071 -6.16973 3.79574
RightLeg  42.0949 -8.53751 -8.45136
RightFoot  -9.91123 -0.0829395 1.35796
RightToes  0.00048216 0.542163 -0.142577
Spine  30.1149 -4.68821 5.54843
Spine1  6.29674 -3.711 0.188593
HEad  -24.3538 5.37971 -10.3496
LeftShoulder1  10.8424 -14.8679 -51.507
LeftArm  -6.81572 -13.6423 -34.4037
LeftForeArm  39.7588 -55.7439 -13.1122
LeftHand  -0.25398 0.0180481 5.50724
RightShoulder  6.91796 11.1677 40.958
RightArm  14.1925 -42.0407 35.5405
RightForeArm  -6.30449 32.2461 7.45763
RightHand  -2.27778 6.20609 -22.9267
LeftUpLeg  9.52301 11.0138 -8.27915
LeftLeg  18.3958 12.7629 3.9061
LeftFoot  -33.6632 -0.461902 -3.34331
LeftToes  1.06246e-005 4.65856e-005 -8.18505e-006
74
root  36.2255 35.789 -1.42199 -159.377 -86.6583 168.495
RightUpLeg  -46.3343 -6.27179 5.61642
RightLeg  47.6613 -8.45651 -10.1273
RightFoot  -14.2861 -0.0656056 1.3623
RightToes  0.00048216 0.542163 -0.142577
Spine  34.1814 -6.27505 9.55681
Spine1  2.73038 -4.42346 2.00172
HEad  -30.0447 5.79388 -13.83
LeftShoulder1  11.2358 -15.3926 -51.8849
LeftArm  -6.44807 -13.366 -35.4324
LeftForeArm  43.0622 -60.0664 -15.4806
LeftHand  -0.25398 0.0180481 5.50724
RightShoulder  7.26037 11.6053 41.7953
RightArm  10.6747 -37.8648 32.3126
RightForeArm  -7.03768 31.3943 7.27178
RightHand  -3.09111 8.98171 -25.024
LeftUpLeg  7.22349 12.3066 -6.09956
LeftLeg  23.8941 10.1874 5.33244
LeftFoot  -33.323 -1.08763 -6.71416
LeftToes  1.06246e-005 4.65856e-005 -8.18505e-006
75
root  34.3637 35.2842 -1.32933 170.494 -87.0884 -159.309
RightUpLeg  -47.7453 -6.26779 7.35312
RightLeg  52.4156 -7.77199 -11.0646
RightFoot  -17.6922 -0.1097 0.195158
RightToes  0.00048216 0.542163 -0.142577
Spine  37.4938 -6.79908 12.2218
Spine1  0.423386 -4.36804 4.47843
HEad  -35.7798 5.6816 -16.3079
LeftShoulder1  11.794 -16.0317 -52.659
LeftArm  -5.82754 -14.3408 -36.4974
LeftForeArm  45.7127 -60.2185 -15.3921
LeftHand  -0.25398 0.0180481 5.50724
RightShoulder  7.95255 12.3365 43.7849
RightArm  7.00921 -31.9279 27.7579
RightForeArm  -8.09687 32.1259 7.52214
RightHand  -4.11955 11.8447 -27.6483
LeftUpLeg  2.14025 12.4051 -3.91496
LeftLeg  35.883 8.4452 6.88296
LeftFoot  -28.377 -1.29342 -9.73083
LeftToes  1.06246e-005 4.65856e-005 -8.18505e-006
